{"title":"X-Men: Days of Future Past: The Rogue Cut 2015 1080p BluRay x264","uid":12154698,"size":10980007764,"categoryP":"video","categoryS":"hd___movies","magnet":"?xt=urn:btih:8ea681a31b33e3334bceb806e84500bf4390e725&amp;dn=X-Men%3A+Days+of+Future+Past%3A+The+Rogue+Cut+2015+1080p+BluRay+x264&amp;tr=udp%3A%2F%2Ftracker.openbittorrent.com%3A80&amp;tr=udp%3A%2F%2Fopen.demonii.com%3A1337&amp;tr=udp%3A%2F%2Ftracker.coppersurfer.tk%3A6969&amp;tr=udp%3A%2F%2Fexodus.desync.com%3A6969","seeders":0,"leechers":0,"uploader":"Alemao99","files":4,"time":1437747599,"description":"In the future, the mutants are hunted mercilessly by the Sentinels, giant robots created by Bolivar Trask (Peter Dinklage). The few survivors have to live hidden, otherwise will also be killed. Among them are Professor Charles Xavier (Patrick Stewart), Magneto (Ian McKellen), Storm (Halle Berry), Kitty Pryde (Ellen Page) and Wolverine (Hugh Jackman), seeking a way to avoid that mutants are consumed. The medium is found to send Wolverine consciousness in a journey through time, towards the year 1970. There she occupies the Wolverine's body at the time, looking for the still young Xavier (James McAvoy) and Magneto (Michael Fassbender), that together , prevent this tragic future for mutants come true. See meeting the characters of the original franchise while they join forces with their younger characters in fighting Sentinels army are hunting mutants and humans.\n\nTitle in Brazil: X-Men: Days of Future Forgotten - Rogue Edition\nOriginal title: X-Men: Days of Future Past: The Rogue Cut\nRelease Year: 2015\nGenre: Action / Adventure / Fiction\nCountry: USA\nDuration: 148 minutes\nDirector: Bryan Singer\nLink IMDB: http://www.imdb.com/title/tt1877832/\n\nSize: 23.10 GB\nExtension Archive: .MKV\nVideo Quality: Blu-Ray\nVideo codec: H.264 / AVC\nAudio codec: AC3 5.1\nResolution: 1920 x 800\nAudio: Portuguese / English\nSubtitles: Portuguese\n\n* 20 minutes longer than the original version\n* The mutant vampire appear in new footage\n\nVideo\nID                                       : 1\nFormat                                   : AVC\nFormat/Info                              : Advanced Video Codec\nFormat profile                           : &lt;a class=&quot;__cf_email__&quot; href=&quot;/cdn-cgi/l/email-protection&quot; data-cfemail=&quot;8ec6e7e9e6cec2baa0bf&quot;&gt;[email&amp;#160;protected]&lt;/a&gt;&lt;script data-cfhash='f9e31' type=&quot;text/javascript&quot;&gt;\n/* &lt;![CDATA[ */!function(){try{var t=&quot;currentScript&quot;in document?document.currentScript:function(){for(var t=document.getElementsByTagName(&quot;script&quot;),e=t.length;e--;)if(t[e].getAttribute(&quot;data-cfhash&quot;))return t[e]}();if(t&amp;&amp;t.previousSibling){var e,r,n,i,c=t.previousSibling,a=c.getAttribute(&quot;data-cfemail&quot;);if(a){for(e=&quot;&quot;,r=parseInt(a.substr(0,2),16),n=2;a.length-n;n+=2)i=parseInt(a.substr(n,2),16)^r,e+=String.fromCharCode(i);e=document.createTextNode(e),c.parentNode.replaceChild(e,c)}t.parentNode.removeChild(t);}}catch(u){}}()/* ]]&gt; */&lt;/script&gt;\nFormat settings, CABAC                   : Yes\nFormat settings, ReFrames                : 5 frames\nMuxing mode                              : Header stripping\nCodec ID                                 : V_MPEG4/ISO/AVC\nDuration                                 : 2h 28mn\nBit rate                                 : 9 009 Kbps\nWidth                                    : 1 920 pixels\nHeight                                   : 800 pixels\nDisplay aspect ratio                     : 2.40:1\nFrame rate                               : 23.976 fps\nColor space                              : YUV\nChroma subsampling                       : 4:2:0\nBit depth                                : 8 bits\nScan type                                : Progressive\nBits/(Pixel*Frame)                       : 0.245\nStream size                              : 9.16 GiB (90%)\nTitle                                    : X-Men.Dias.de.Um.Futuro.Esquecido.EDICAO.VAMPIRA.2015.1080p.BluRay.x264.SADPANDA.DUAL-RK\nWriting library                          : x264 core 146 r2538 121396c\nEncoding settings                        : cabac=1 / ref=5 / deblock=1:0:0 / analyse=0x3:0x133 / me=umh / subme=8 / psy=1 / psy_rd=1.00:0.00 / mixed_ref=1 / me_range=16 / chroma_me=1 / trellis=1 / 8x8dct=1 / cqm=0 / deadzone=21,11 / fast_pskip=0 / chroma_qp_offset=-2 / threads=12 / lookahead_threads=2 / sliced_threads=0 / nr=0 / decimate=1 / interlaced=0 / bluray_compat=0 / constrained_intra=0 / bframes=3 / b_pyramid=2 / b_adapt=1 / b_bias=0 / direct=1 / weightb=1 / open_gop=0 / weightp=2 / keyint=250 / keyint_min=23 / scenecut=40 / intra_refresh=0 / rc_lookahead=40 / rc=2pass / mbtree=1 / bitrate=9009 / ratetol=1.0 / qcomp=0.60 / qpmin=0 / qpmax=69 / qpstep=4 / cplxblur=20.0 / qblur=0.5 / ip_ratio=1.40 / aq=1:1.00\nLanguage                                 : English\nDefault                                  : Yes\nForced                                   : No\n\nAudio #1\nID                                       : 2\nFormat                                   : AC-3\nFormat/Info                              : Audio Coding 3\nMode extension                           : CM (complete main)\nFormat settings, Endianness              : Big\nMuxing mode                              : Header stripping\nCodec ID                                 : A_AC3\nDuration                                 : 2h 28mn\nBit rate mode                            : Constant\nBit rate                                 : 384 Kbps\nChannel(s)                               : 6 channels\nChannel positions                        : Front: L C R, Side: L R, LFE\nSampling rate                            : 48.0 KHz\nBit depth                                : 16 bits\nCompression mode                         : Lossy\nStream size                              : 409 MiB (4%)\nTitle                                    : @RK [BR] Dolby Digital 5.1\nLanguage                                 : Portuguese\nDefault                                  : Yes\nForced                                   : No\n\nAudio #2\nID                                       : 3\nFormat                                   : AC-3\nFormat/Info                              : Audio Coding 3\nMode extension                           : CM (complete main)\nFormat settings, Endianness              : Big\nMuxing mode                              : Header stripping\nCodec ID                                 : A_AC3\nDuration                                 : 2h 28mn\nBit rate mode                            : Constant\nBit rate                                 : 448 Kbps\nChannel(s)                               : 6 channels\nChannel positions                        : Front: L C R, Side: L R, LFE\nSampling rate                            : 48.0 KHz\nBit depth                                : 16 bits\nCompression mode                         : Lossy\nStream size                              : 477 MiB (5%)\nTitle                                    : @RK [ENG] Dolby Digital 5.1\nLanguage                                 : English\nDefault                                  : No\nForced                                   : No","torrent":{"xt":"urn:btih:8ea681a31b33e3334bceb806e84500bf4390e725","amp;dn":"X-Men%3A+Days+of+Future+Past%3A+The+Rogue+Cut+2015+1080p+BluRay+x264","amp;tr":["udp%3A%2F%2Ftracker.openbittorrent.com%3A80","udp%3A%2F%2Fopen.demonii.com%3A1337","udp%3A%2F%2Ftracker.coppersurfer.tk%3A6969","udp%3A%2F%2Fexodus.desync.com%3A6969"],"infoHash":"8ea681a31b33e3334bceb806e84500bf4390e725","infoHashBuffer":{"type":"Buffer","data":[142,166,129,163,27,51,227,51,75,206,184,6,232,69,0,191,67,144,231,37]},"announce":[],"urlList":[]}}